<svg width="45" height="45" viewBox="0 0 45 45" fill="none" xmlns="http://www.w3.org/2000/svg">
<path d="M36.9001 3.60001H8.1001C5.6161 3.60001 3.6001 5.61601 3.6001 8.10001V36.9C3.6001 39.384 5.6161 41.4 8.1001 41.4H36.9001C39.3841 41.4 41.4001 39.384 41.4001 36.9V8.10001C41.4001 5.61601 39.3841 3.60001 36.9001 3.60001ZM15.3001 18V35.1H9.9001V18H15.3001ZM9.9001 13.023C9.9001 11.763 10.9801 10.8 12.6001 10.8C14.2201 10.8 15.2371 11.763 15.3001 13.023C15.3001 14.283 14.2921 15.3 12.6001 15.3C10.9801 15.3 9.9001 14.283 9.9001 13.023ZM35.1001 35.1H29.7001C29.7001 35.1 29.7001 26.766 29.7001 26.1C29.7001 24.3 28.8001 22.5 26.5501 22.464H26.4781C24.3001 22.464 23.4001 24.318 23.4001 26.1C23.4001 26.919 23.4001 35.1 23.4001 35.1H18.0001V18H23.4001V20.304C23.4001 20.304 25.1371 18 28.6291 18C32.2021 18 35.1001 20.457 35.1001 25.434V35.1Z" fill="#24292F"/>
</svg>
